<svg width="117" height="143" viewBox="0 0 117 143" fill="none" xmlns="http://www.w3.org/2000/svg">
<path fill-rule="evenodd" clip-rule="evenodd" d="M27.3743 27.9642L22.7887 25.8075L25.756 32.0106L22.2487 39.5629L27.1051 36.8655L33.0368 44.6854L31.9584 34.978L37.6224 32.0106L31.9584 29.5832L32.7676 21.2211L27.3743 27.9642ZM44.7377 102.337C22.6163 96.3538 6.5166 76.1817 6.5166 52.169C6.5166 23.4479 29.8025 0.161255 58.5252 0.161255C87.2486 0.161255 110.532 23.4479 110.532 52.169C110.532 66.032 105.108 78.6274 96.2673 87.9505C96.2673 87.9505 92.6464 83.2543 91.5665 81.6383C90.4866 80.0192 88.8706 79.8179 89.1398 77.591C89.4647 74.9013 91.5665 72.1963 91.5665 72.1963L92.1057 74.353C92.1057 74.353 107.249 58.4363 105.592 47.6535C104.511 40.6412 100.197 39.8321 100.197 39.8321C100.197 39.8321 101.275 33.359 91.2958 28.5033C81.3161 23.6493 73.7646 24.4584 73.7646 24.4584L78.0811 27.695C78.0811 27.695 72.8884 26.7676 70.2581 27.425L68.1014 27.9649L70.8987 29.3148C70.8987 29.3148 65.2027 29.5718 61.3583 32.5513C58.3566 34.8781 58.1217 36.3278 58.1217 36.3278H60.2799C60.2799 36.3278 58.3909 39.5644 57.8525 42.8002C57.3133 46.0368 57.549 46.9138 57.549 46.9138C57.549 46.9138 57.549 48.4307 54.818 50.4539C52.82 51.9341 50.8745 52.275 50.2667 53.0834C49.3508 54.3051 52.1885 56.2864 52.1885 56.2864C52.1885 56.2864 51.9864 57.7362 50.6709 59.3545C50.07 60.0942 52.1885 61.3769 52.8962 61.6812L51.1773 63.0966C51.1773 63.0966 50.571 63.7037 51.5807 64.4106C52.5935 65.1191 52.1878 66.6367 51.7843 68.2543C51.3794 69.8733 50.571 72.4022 56.0314 73.0069C61.494 73.6147 61.7976 74.626 62.3024 75.3337C62.8088 76.0444 65.9424 84.9427 64.3249 86.3604C62.1011 88.3044 58.1919 87.7293 50.6701 92.832C45.0069 96.6734 44.7377 102.337 44.7377 102.337Z" fill="#28539C"/>
<path fill-rule="evenodd" clip-rule="evenodd" d="M62.1011 44.7876C62.1011 44.7876 63.92 47.5193 64.6284 48.0242C65.3362 48.5298 65.5382 49.2375 65.0319 49.3397C64.5255 49.4396 60.9846 49.3397 60.9846 49.3397L61.189 48.7326C61.189 48.7326 60.8855 47.9243 61.189 47.1144C61.4925 46.3052 62.3017 46.0017 62.3017 46.0017L62.1011 44.7876ZM0.642913 122.294H8.49487C14.486 122.294 15.7253 127.963 15.7253 131.704C15.7253 135.942 14.2138 142.052 8.34464 142.052H0.642151L0.642913 122.294ZM4.28367 138.64H7.90003C10.9208 138.64 11.9358 135.254 11.9358 132.007C11.9358 126.173 9.43366 125.706 7.84893 125.706H4.28291L4.28367 138.64ZM22.3738 142.052H18.4608L24.802 122.294H29.0857L35.3529 142.052H31.3156L30.1755 137.98H23.6131L22.3738 142.052ZM24.6037 134.567H29.136L26.9305 126.75H26.8825L24.6037 134.567ZM51.1491 122.294H54.6167V142.052H50.9005L43.6449 127.963H43.5946V142.052H40.1277V122.294H44.0407L51.0988 136.054H51.1491V122.294ZM69.3902 121.615C71.9847 121.615 78.8117 122.765 78.8117 132.226C78.8117 141.686 71.9855 142.839 69.3902 142.839C66.7973 142.839 59.9703 141.686 59.9703 132.226C59.9711 122.765 66.7973 121.615 69.3902 121.615ZM69.3902 139.273C71.6019 139.273 74.7149 137.869 74.7149 132.226C74.7149 126.584 71.6019 125.181 69.3902 125.181C67.1802 125.181 64.0656 126.584 64.0656 132.226C64.0656 137.869 67.1802 139.273 69.3902 139.273ZM95.3774 122.294H98.845V142.052H95.1303L87.8739 127.963H87.8259V142.052H84.3567V122.294H88.2697L95.327 136.054H95.3774V122.294ZM115.934 125.788H108.962V129.943H115.169V133.44H108.962V138.558H116.357V142.052H105.321V122.294H115.934V125.788Z" fill="#28539C"/>
</svg>
